<?xml version="1.0" standalone="no"?><!-- Generator: Gravit.io --><svg xmlns="http://www.w3.org/2000/svg" xmlns:xlink="http://www.w3.org/1999/xlink" style="isolation:isolate" viewBox="0 0 512 512" width="512" height="512"><defs><clipPath id="_clipPath_EqYFWOyxgMt4DoVLjHrGFxsgQtqkM1k6"><rect width="512" height="512"/></clipPath></defs><g clip-path="url(#_clipPath_EqYFWOyxgMt4DoVLjHrGFxsgQtqkM1k6)"><circle vector-effect="non-scaling-stroke" cx="256" cy="256" r="250" fill="rgb(34,36,40)"/><path d=" M 256.005 98 L 95.722 155.172 L 122.815 367.377 L 137.638 375.656 L 137.638 375.656 L 140.094 377.022 L 162.465 389.536 L 163.894 390.341 L 163.894 390.341 L 177.489 397.974 L 179.5 399.097 L 179.5 399.097 L 193.179 406.741 L 194.672 407.577 L 194.672 407.577 L 207.589 414.798 L 209.611 415.931 L 209.611 415.931 L 230.786 427.757 L 231.146 427.958 L 231.146 427.958 L 240.421 433.146 L 240.421 433.146 L 243.131 434.681 L 255.963 441.859 L 258.906 440.218 L 258.906 440.218 L 261.638 438.694 L 289.239 423.257 L 289.239 423.257 L 294.671 420.219 L 294.671 420.219 L 306.444 413.633 L 306.444 413.633 L 311.875 410.595 L 311.875 410.595 L 323.649 404.009 L 323.649 404.009 L 329.08 400.971 L 329.08 400.971 L 335.528 397.36 L 340.398 394.639 L 340.398 394.639 L 347.64 390.584 L 351.261 388.562 L 351.261 388.562 L 368.92 378.684 L 368.92 378.684 L 374.352 375.645 L 374.352 375.645 L 389.174 367.355 L 416.278 155.172 L 256.005 98 Z  M 366.772 351.67 L 364.949 352.644 L 364.949 316.18 L 356.177 316.18 L 356.177 306.589 L 351.177 306.589 L 351.177 316.18 L 343.671 316.18 L 343.671 273.877 L 319.976 273.877 L 319.976 253.145 L 314.975 253.145 L 314.975 273.877 L 302.47 273.877 L 302.47 298.109 L 291.631 290.691 L 291.631 243.232 L 277.878 243.232 L 277.878 229.488 L 255.371 229.488 L 255.371 243.232 L 241.618 243.232 L 241.618 307.837 L 233.079 307.837 L 233.079 284.511 L 223.079 284.511 L 223.079 263.253 L 215.33 263.253 L 209.325 249.509 L 209.325 234.46 L 204.325 234.46 L 204.325 249.47 L 198.34 263.253 L 190.543 263.253 L 190.543 284.511 L 180.561 284.511 L 180.561 303.596 L 171.185 307.495 L 171.185 299.542 L 166.175 299.542 L 166.175 309.513 L 147.002 317.418 L 147.002 352.693 L 145.179 351.718 L 122.361 172.838 L 255.995 125.154 L 389.629 172.838 L 366.772 351.67 Z " fill-rule="evenodd" fill="rgb(255,255,255)"/></g></svg>