<svg xmlns="http://www.w3.org/2000/svg" viewBox="0 0 648 352.8">
  <defs>
    <style>.cls-1{fill:#b62d31;}.cls-2{fill:#ffffff;}</style>
  </defs>
  <title>ngATL_logo</title>
  <g id="Layer_2" data-name="Layer 2">
    <g id="Layer_1-2" data-name="Layer 1">
      <path class="cls-1" d="M0,103.27H18.56l17.58,74.65V103.27H53.33V232H34.77L17.84,159.69V232H0Z"/>
      <path class="cls-1" d="M98.47,141.38V128.26q0-8.66-8.07-8.72h-.13q-8,0-8,8.72V207q0,8.72,8.07,8.72T98.47,207V193.73H90.92V175.36H117V207q0,27-26.7,27.09T63.7,207V128.26q0-27,26.63-27t26.7,27v13.12Z"/>
      <path class="cls-1" d="M510.76,132.79,497.64,232h-18.7l19.15-128.7h25.45L542.64,232H523.88Z"/>
      <path class="cls-1" d="M593.42,103.27v18.3H576V232H557.47V121.57H540.09v-18.3Z"/>
      <path class="cls-1" d="M599.85,232V103.27h18.56v110.4H648V232Z"/>
      <path class="cls-2" d="M304.16,0,139.72,58.67l27.79,217.7L304.16,352.8,440.8,276.38l27.79-217.7ZM435.6,272.87,304.16,346.39,172.71,272.87,145.84,62.43,304.16,5.94,462.47,62.43Z"/>
      <path class="cls-2" d="M304.16,14,152.77,68l25.59,200.43,14,7.82h0l2.32,1.29,21.13,11.82,1.35.76h0L230,297.33l1.9,1.06h0l12.92,7.22,1.41.79h0l12.2,6.82,1.91,1.07h0l20,11.17.34.19h0l8.76,4.9h0L292,332l12.12,6.78,2.78-1.55h0l2.58-1.44,26.07-14.58h0l5.13-2.87h0l11.12-6.22h0l5.13-2.87h0l11.12-6.22h0l5.13-2.87h0l6.09-3.41,4.6-2.57h0l6.84-3.83,3.42-1.91h0l16.68-9.33h0l5.13-2.87h0l14-7.83L455.54,68ZM212,272.3l-14.54-8.13V228.56l14.54-6Zm14.75,8.25-9.62-5.38V220.45l9.62-4Zm14.33-50.75h-9.19V214.36l9.19-3.79Zm0,5.13v5.37h-9.19v-5.37Zm0,10.5v5.37h-9.19v-5.37Zm0,10.5v32.63l-9.19-5.14V255.94Zm-9.19-47.13V196.48h43.61v18.82H255.2v81.17l-9-5V202.9Zm33.35-34.14v16.68H242.16V174.67Zm-14.68-5.13,3.13-7.17,3.13,7.17Zm9.76,50.88h15.18v26h-9.19v5.13h9.19v5.37h-9.19V262h9.19v5.37h-9.19v5.13h9.19v35.28l-15.18-8.49Zm20.31,90.27V220.42h8.76v95.17Zm23.52,13.15-9.62-5.38V283h12.4v39.25Zm-9.62-122v-5.37h13v-5.13h-13v-5.37h13v-5.13h-13v-5.37h13v-5.13h-13v-5.37h13v-5.13h-13v-5.67h41v40l-16.24-11.12V315.35l-7.27,4.07V215.29H294.53V207h13v-5.13ZM308.64,149v-9h12.83v9Zm26.94,113v4.06H324.47V262Zm-11.11-5.13V192.79l11.11,7.6v56.5Zm11.11,14.32v4.06H324.47v-4.06Zm0,9.19v4.06H324.47v-4.06Zm0,9.19v4.06H324.47V289.6Zm-28.65-69.18V256.9h-12.4V220.42Zm0,41.61v5.37h-12.4V262Zm0,10.5v5.37h-12.4v-5.37Zm17.53,39.95V298.79h11.11v7.48Zm16.24-9.09V203.91l11.12,7.61v85.66ZM357,294.31V215l11.12,7.61v65.46Zm0-85.5V185.57H389v4.35H365.94v5.13H389V198H365.94v5.13H389V206H365.94v5.13H389v12.69H378.77v58.27l-5.56,3.11V219.93ZM389,256.44v2.92H383.9v-2.92Zm-5.13-5.13V229H389v22.33ZM389,264.49v2.92H383.9v-2.92Zm-5.13,8H389v3.84l-5.13,2.87Zm10.26,1V229h16.68v11.33H399.29v5.13h11.55v18.74Zm23.67-13.24-1.87,1V223.84h-9V214h-5.13v9.84h-7.7v-43.4H369.79V159.17h-5.13v21.27H351.83V205.3l-11.12-7.61V149H326.6V134.9H303.51V149H289.4v66.28h-8.76V191.35H270.38V169.54h-7.95l-6.16-14.1V140h-5.13v15.4L245,169.54H237v21.81H226.76v19.58l-9.62,4v-8.16H212V217l-19.67,8.11V261.3l-1.87-1L167.05,76.78l137.1-48.92,137.1,48.92Z"/>
    </g>
  </g>
</svg>
